<?xml version="1.0" encoding="utf-8"?>
<!-- Generator: Adobe Illustrator 27.5.0, SVG Export Plug-In . SVG Version: 6.00 Build 0)  -->
<svg version="1.1" id="Layer_1" xmlns="http://www.w3.org/2000/svg" xmlns:xlink="http://www.w3.org/1999/xlink" x="0px" y="0px"
	 viewBox="0 0 4000 4000" style="enable-background:new 0 0 4000 4000;" xml:space="preserve">
<g>
	<g>
		<g>
			<rect style="fill:#DEF1FF;" width="4000" height="4000"/>
		</g>
	</g>
	<g>
		<g>
			<g>
				<g>
					<path style="fill:#FDD0B4;" d="M1659.869,3147.655c-11.613,117.281-75.714,377.069-76.635,382.813
						c-3.149,19.66-7.865,35.962,21.872,56.426c51.574,35.49,223.574,97.787,252.255,97.787c19.404,0,36.255-23.49,32.936-46.468
						c-4.496-31.127-41.362-109.277-41.362-109.277s104.709-194.847,138.056-310.445
						C1919.294,3045.201,1796.396,3071.757,1659.869,3147.655z"/>
				</g>
			</g>
			<g>
				<g>
					<path style="fill:#E8A289;" d="M1659.869,3147.655l6.429,23.324l234.254,72.276l-88.892,242.788
						c0,0,56.681,128.222,53.617,143.708c-3.064,15.485-9.586,17.483-15.83,17.483c-12.936,0-199.403-69.335-267.053-111.646
						c-2.868,17.439-4.404,32.647,22.712,51.306c51.574,35.489,223.574,97.787,252.255,97.787c19.404,0,36.255-23.489,32.936-46.468
						c-4.496-31.127-41.362-109.276-41.362-109.276s104.708-194.847,138.056-310.445
						C1919.294,3045.201,1796.396,3071.757,1659.869,3147.655z"/>
				</g>
			</g>
			<g>
				<g>
					<path style="fill:#410700;" d="M1857.362,3704.679c-34.778,0-211.445-65.425-263.594-101.313
						c-38.516-26.499-34.063-53.281-30.811-72.842l0.527-3.213c0.227-1.411,0.576-2.93,4.148-18.042
						c41.47-175.337,65.806-297.666,72.334-363.589l39.805,3.945c-6.702,67.686-31.335,191.787-73.213,368.853
						c-1.99,8.418-3.281,13.847-3.638,15.527l-0.505,3.081c-2.715,16.318-3.533,21.245,14.026,33.33
						c51.223,35.249,218.743,94.233,240.921,94.263c2.129,0,4.958-1.743,7.388-4.546c4.429-5.117,6.687-12.598,5.754-19.063
						c-3.337-23.101-29.758-82.617-39.656-103.599c-2.705-5.737-2.532-12.417,0.471-18.003
						c1.038-1.929,104.089-194.321,136.458-306.519l38.433,11.084c-29.876,103.564-113.855,265.586-134.946,305.513
						c10.344,22.617,34.844,78.218,38.831,105.806c2.598,17.993-3.049,37.041-15.107,50.967
						C1884.735,3698.161,1871.37,3704.679,1857.362,3704.679z"/>
				</g>
			</g>
			<g>
				<g>
					<path style="fill:#410700;" d="M1764.341,3581.873c1.096,26.365,3.213,52.941-8.368,78.142
						c-0.001,0-25.528-19.295-25.528-19.295C1747.161,3626.386,1755.773,3602.271,1764.341,3581.873L1764.341,3581.873z"/>
				</g>
			</g>
			<g>
				<g>
					<path style="fill:#410700;" d="M1800.681,3594.553c3.275,26.727,8.031,53.935-3.971,80.042
						c-0.001,0-25.531-19.295-25.531-19.295c7.459-4.954,13.208-17.083,17.288-26.003
						C1793.32,3618.298,1797.344,3606.548,1800.681,3594.553L1800.681,3594.553z"/>
				</g>
			</g>
			<g>
				<g>
					<path style="fill:#410700;" d="M1828.313,3606.042c7.545,25.34,15.808,51.411,8.456,78.503
						c-0.001,0-28.429-14.695-28.429-14.695C1822.318,3653.122,1825.009,3627.575,1828.313,3606.042L1828.313,3606.042z"/>
				</g>
			</g>
		</g>
		<g>
			<g>
				<g>
					<path style="fill:#FDD0B4;" d="M2138.492,3205.334c21.423,119.857,37.169,414.138,38.444,424.416
						c2.042,16.462,5.787,33.483,42.213,35.197c41.487,1.952,240.341,8.499,261.447,6.457c21.106-2.042,23.853-29,18.894-43.404
						c-10.723-31.149-80.17-73.021-80.17-73.021s51.064-218.042,74.576-361.355
						C2362.692,3022.766,2250.424,3111.745,2138.492,3205.334z"/>
				</g>
			</g>
			<g style="opacity:0.6;">
				<g>
					<path style="fill:#FFFFFF;" d="M2499.489,3628c-10.723-31.149-80.17-73.021-80.17-73.021s51.064-218.042,74.576-361.355
						c-14.354-18.692-28.481-34.274-42.406-47.08c-15.628,103.304-75.574,411.5-75.574,411.5s95.49,53.282,102.639,81.367
						c2.959,11.624,5.296,22.31,7.03,30.882C2502.069,3664.768,2504.023,3641.168,2499.489,3628z"/>
				</g>
			</g>
			<g>
				<g>
					<path style="fill:#E8A289;" d="M2291.802,3616.12c-8.028-15.454,32.844-45,32.844-45s-69.795-14.31-71.455-35.886
						c-3.404-44.256,38.128-248.511,21.787-341.611l-15.685-75.112c-40.873,20.625-80.859,53.426-120.802,86.823
						c21.423,119.857,37.169,414.138,38.444,424.417c2.042,16.462,5.787,33.483,42.213,35.197
						c41.487,1.951,240.34,8.499,261.447,6.456c17.863-1.729,22.547-21.283,20.568-35.99c-10.23,2.953-24.294,4.902-43.717,4.902
						C2375.745,3640.316,2299.83,3631.575,2291.802,3616.12z"/>
				</g>
			</g>
			<g>
				<g>
					<path style="fill:#410700;" d="M2463.37,3691.764c-57.864,0-215.391-5.439-245.161-6.841
						c-48.665-2.285-58.225-29.37-61.121-52.71c-0.269-2.173-0.632-7.685-2.07-30.317c-5.127-80.771-18.748-295.317-36.213-393.042
						l39.375-7.041c17.869,99.966,31.592,316.157,36.758,397.549c0.891,14.009,1.658,26.108,1.863,28.066
						c1.531,12.339,2.053,16.543,23.289,17.544c45.093,2.119,239.773,8.359,258.579,6.523c0.459-0.044,0.637-0.117,0.637-0.117
						c1.938-1.582,3.389-10.728,1.274-16.87c-5.684-16.509-46.082-47.002-71.594-62.407l-12.448-7.52l3.31-14.165
						c0.508-2.173,51.182-219.038,74.312-360.029l39.473,6.475c-19.939,121.533-60.019,298.35-71.626,348.794
						c23.04,15.127,66.353,46.665,76.396,75.83c4.807,13.975,5.09,35.176-5.122,51.055c-6.982,10.859-17.905,17.524-30.757,18.77
						C2479.281,3691.623,2472.586,3691.764,2463.37,3691.764z"/>
				</g>
			</g>
			<g>
				<g>
					<path style="fill:#410700;" d="M2425.786,3609.106c16.003,18.959,28.639,39.267,30.147,66.399c0,0-39.2-7.959-39.2-7.959
						C2427.788,3650.89,2427.728,3629.035,2425.786,3609.106L2425.786,3609.106z"/>
				</g>
			</g>
		</g>
		<g>
			<g>
				<g>
					<path style="fill:#AF4D04;" d="M1696.936,2733.872l-44.596,411.574c0,0,242.723,72.511,370.043,75.234l61.459-152.341h25.009
						l17.872,136.851c0,0,265.532,4.085,379.404-13.277c0,0,61.617-161.872,42.894-452.596
						C2308.318,2563.695,1996.433,2673.632,1696.936,2733.872z"/>
				</g>
			</g>
			<g>
				<g>
					<path style="fill:#842800;" d="M2550.36,2762.692c-0.393-7.702-0.831-15.48-1.339-23.373
						c-240.703-175.625-552.588-65.688-852.085-5.447l-2.995,27.641C1815.819,2761.817,2329.397,2763.042,2550.36,2762.692z"/>
				</g>
			</g>
			<g style="opacity:0.4;">
				<g>
					<path style="fill:#FFFFFF;" d="M2465.603,3196.711c14.859-1.382,28.539-2.969,40.524-4.796c0,0,61.617-161.872,42.894-452.596
						c-17.805-12.991-36.01-24.382-54.56-34.384C2512.529,2873.349,2484.134,3085.343,2465.603,3196.711z"/>
				</g>
			</g>
			<g style="opacity:0.4;">
				<g>
					<path style="fill:#FFFFFF;" d="M1782.263,2715.71c-28.506,6.31-56.972,12.459-85.327,18.163l-44.596,411.575
						c0,0,23.739,7.091,60.261,16.922C1712.602,3162.369,1762.874,2885.702,1782.263,2715.71z"/>
				</g>
			</g>
			<g>
				<g>
					<path style="fill:#842800;" d="M1874.979,2919.234l94.979,111.319l-58.701,177.293c40.513,7.143,79.403,12.156,111.127,12.834
						l61.459-152.34h25.009l17.872,136.851c0,0,74.475,1.146,161.453-0.355l4.505-139.049c0,0,163.915-99.574,194.27-199.066
						C2262.553,3010.638,1874.979,2919.234,1874.979,2919.234z"/>
				</g>
			</g>
			<g>
				<g>
					<path style="fill:#410700;" d="M2022.386,3240.68c-0.144,0-0.286,0-0.43-0.005c-128.547-2.749-365.325-73.076-375.342-76.064
						c-9.243-2.764-15.198-11.729-14.158-21.319l44.597-411.572l39.766,4.307l-42.788,394.883
						c53.43,15.249,228.469,63.232,335.071,69.233l56.191-139.282c3.052-7.569,10.391-12.52,18.547-12.52h25.01
						c10.044,0,18.53,7.451,19.832,17.412l15.625,119.629c58.096,0.503,248.169,1.094,346.792-11.558
						c12.732-40.654,53.452-192.739,37.964-433.223l39.917-2.568c18.787,291.704-41.582,454.219-44.16,460.996
						c-2.563,6.733-8.552,11.573-15.676,12.656c-114.211,17.412-371.819,13.662-382.727,13.506
						c-9.927-0.156-18.237-7.568-19.524-17.412l-14.121-108.12l-51.841,128.501
						C2037.874,3235.739,2030.526,3240.68,2022.386,3240.68z"/>
				</g>
			</g>
			<g>
				<g>
					<path style="fill:#410700;" d="M2494.214,2856.426c-75.284,135.109-232.574,217.022-383.493,231.827
						c-0.001-0.001-3.739-39.825-3.739-39.825c36.399-3.352,72.424-9.707,107.783-18.977
						C2322.31,3000.47,2419.249,2939.062,2494.214,2856.426L2494.214,2856.426z"/>
				</g>
			</g>
		</g>
		<g>
			<g>
				<g>
					<path style="fill:#FDD0B4;" d="M1510.383,2319.234c0,0-110.298,125.957-186.894,346.213c0,0-27.234,34.383-49.362,99.745
						c0,0-31.958,28.809-35.66,49.362c-3.733,20.723,12.511,36.51,38.808,30.383c0,0-11.489,40.766,31.745,40.766
						c2.724,13.106,21.277,25.702,41.277,18.723c14.625-5.103,23.397-15.177,23.397-15.177s0.187,31.41,28.433,34.326
						c39.574,4.085,64.202-82.426,64.202-82.426s20.564,38,44.053,23.702c21.479-13.074,12.766-97.021,4.34-125.532
						c0,0,79.404-111.66,180-192.851C1724.874,2378.629,1682.606,2283.601,1510.383,2319.234z"/>
				</g>
			</g>
			<g>
				<g>
					<path style="fill:#E8A289;" d="M1694.723,2546.468c30.151-167.839-12.117-262.867-184.34-227.234c0,0-2.881,3.298-7.982,9.675
						c101.509,104.52,117.862,169.576,117.862,169.576s-92.178,102.622-148.021,209.037c0,0,32.013,109.755,21.8,121.33
						c-10.213,11.575-32-39.149-32-39.149s-41.021,96-71.659,83.064c-7.985-0.324-47.49,3.574-51.064-33.192
						c-27.064,17.702-39.158,9.354-44.553-10.724c0,0-27.886,5.967-54.363,2.88c5.261,11.159,18.643,17.454,36.874,13.206
						c0,0-11.489,40.766,31.745,40.766c2.723,13.106,21.277,25.702,41.277,18.724c14.625-5.104,23.396-15.177,23.396-15.177
						s0.187,31.41,28.433,34.326c39.574,4.085,64.202-82.426,64.202-82.426s20.563,38,44.053,23.702
						c21.479-13.075,12.766-97.021,4.34-125.532C1514.723,2739.319,1594.128,2627.659,1694.723,2546.468z"/>
				</g>
			</g>
			<g style="opacity:0.6;">
				<g>
					<path style="fill:#FFFFFF;" d="M1362.638,2683.49c54.252-155.429,137.839-274.667,216.399-371.608
						c-20.129-0.32-42.91,2.026-68.655,7.353c0,0-110.298,125.957-186.894,346.213c0,0-27.234,34.383-49.362,99.744
						c0,0-31.958,28.809-35.66,49.362c-2.373,13.172,3.348,24.324,14.569,29.147c-0.42-34.415,59.218-64.892,59.218-64.892
						C1326.022,2727.795,1343.549,2702.43,1362.638,2683.49z"/>
				</g>
			</g>
			<g>
				<g>
					<path style="fill:#410700;" d="M1405.025,2943.727c-1.626,0-3.274-0.083-4.951-0.259
						c-18.511-1.909-30.154-11.426-37.144-22.568c-1.921,0.864-3.936,1.675-6.043,2.407c-14.844,5.19-31.074,3.784-44.516-3.828
						c-6.814-3.858-12.444-8.989-16.506-14.893c-15.979-2.871-25.239-10.781-30.427-17.632c-5.198-6.865-7.747-14.448-8.835-21.509
						c-9.602-1.636-18.157-5.737-24.885-12.134c-11.152-10.601-15.867-26.021-12.932-42.305
						c4.028-22.354,27.617-47.041,38.054-57.041c19.255-55.029,41.741-88.345,48.787-98.027
						c76.929-219.556,185.124-344.639,189.712-349.878l30.103,26.338c-1.079,1.235-108.799,126.074-183.062,339.614l-1.111,3.198
						l-2.1,2.651c-0.22,0.283-25.532,32.998-46.099,93.745l-1.672,4.941l-3.879,3.496c-12.981,11.748-27.888,29.849-29.368,38.052
						c-0.295,1.646-0.544,4.639,1.123,6.226c1.67,1.582,6.194,2.832,13.464,1.138l32.974-7.686l-9.185,32.588
						c-0.884,3.462-1.047,10.058,0.825,12.475c1.072,1.382,4.702,2.862,11.67,2.862h16.274l3.308,15.933
						c0.508,1.23,6.304,6.982,15.108,3.911c9.111-3.184,14.993-9.536,15.051-9.6l34.458-37.681l0.474,50.869
						c0.132,3.892,1.423,13.613,10.486,14.551c12.986,1.235,33.591-35.488,42.917-68.027l13.499-47.095l23.323,43.066
						c4.446,8.052,12.063,15.64,15.313,16.387c8.115-13.237,4.897-73.97-3.689-103.027l-2.756-9.331l5.637-7.93
						c3.308-4.648,82.168-114.844,183.738-196.822l25.122,31.123c-83.113,67.08-152.244,156.533-171.15,181.914
						c5.991,30.015,19.695,116.655-15.349,137.993c-9.915,6.025-20.94,7.661-31.873,4.702c-5.603-1.514-10.698-4.121-15.237-7.275
						C1460.97,2908.097,1438.47,2943.727,1405.025,2943.727z"/>
				</g>
			</g>
			<g>
				<g>
					<polygon style="fill:#410700;" points="1312.256,2808.767 1291.653,2858.84 1262.9,2831.033 1312.256,2808.767 					"/>
				</g>
			</g>
			<g>
				<g>
					<polygon style="fill:#410700;" points="1345.618,2828.85 1325.837,2896.528 1292.205,2874.878 1345.618,2828.85 					"/>
				</g>
			</g>
		</g>
		<g>
			<g>
				<g>
					<path style="fill:#FDD0B4;" d="M2578.383,2092.936c36.378,6.684,66.085,2.895,88.085-9.617
						c40.851-23.234,63.574-90.383,65.617-103.149c0,0-16.722-62.185-11.745-98.17c5.362-38.769,39.319-43.021,56.766-25.745
						c0,0,2.3-21.223,10.042-35.574c13.958-25.872,45.447-23.66,57.532,1.872c4.262,9.004,6.128,19.745,6.128,19.745
						s7.645-11.979,14.936-22.34c16.979-24.128,57.574-13.234,54.341,17.915c-0.545,5.248-2.213,15.319-2.213,15.319
						s5.98-4.858,11.745-9.532c18.894-15.319,47.49,4.766,37.958,29.277c-2.721,6.996-6.298,16.511-6.298,16.511
						s6.184-2.113,12.255-3.574c27.574-6.638,38.808,25.881,24.51,43.574c-13.617,16.851-36.596,34.043-36.596,34.043
						s0.681,53.702-39.659,101.447c-59.234,293.787-135.319,354.894-365.025,336L2578.383,2092.936z"/>
				</g>
			</g>
			<g style="opacity:0.6;">
				<g>
					<path style="fill:#FFFFFF;" d="M2767.574,1988c-18.894-90.383-20.426-131.745,12.94-105.872v-25.872l-3.072-2.55
						c-0.228,1.589-0.336,2.55-0.336,2.55c-17.447-17.277-51.404-13.024-56.766,25.745c-4.977,35.985,11.745,98.17,11.745,98.17
						c-2.043,12.766-24.766,79.915-65.617,103.149c-22,12.512-51.707,16.301-88.085,9.617l-3.271,46.605
						C2686.147,2138.839,2734.894,2111.574,2767.574,1988z"/>
				</g>
			</g>
			<g>
				<g>
					<path style="fill:#E8A289;" d="M2773.702,1991.404c27.574,26.894,75.648,31.605,86.128,61.617
						c15.66,44.847-42.213,198.809-93.05,232.851c-75.831,50.78-148.823,31.064-203.481,21.946l-6.537,93.118
						c229.706,18.894,305.791-42.213,365.025-336c40.34-47.745,39.659-101.447,39.659-101.447
						C2904.426,2034.298,2773.702,1991.404,2773.702,1991.404z"/>
				</g>
			</g>
			<g>
				<g>
					<path style="fill:#410700;" d="M2624.742,2423.996c-21.345,0-44.465-1.06-69.622-3.13l3.281-39.863
						c209.463,17.202,284.229-24.658,343.782-320.02l1.013-5.029l3.313-3.921c34.683-41.055,34.939-87.913,34.937-88.381
						l-0.032-10.054l8.049-6.121c0.203-0.151,21.184-15.95,33.025-30.601c2.373-2.937,2.173-7.92,0.508-10.554
						c-0.581-0.918-1.177-1.868-4.785-1.006c-5.041,1.213-10.42,3.039-10.474,3.059l-40.066,13.65l14.885-39.617
						c0,0,3.621-9.634,6.377-16.719c0.422-1.089,1.545-3.977-1.633-6.294c-1.868-1.365-3.574-1.436-5.088-0.2l-52.688,42.788
						l8.616-52.058c0.437-2.639,1.658-10.322,2.053-14.126c0.3-2.881,0.02-6.431-4.834-8.25c-3.086-1.157-9.353-1.636-13.257,3.916
						c-6.936,9.856-14.36,21.474-14.434,21.592l-27.744,43.469l-8.821-50.808c-0.403-2.246-2.012-9.353-4.5-14.609
						c-2.554-5.393-6.694-8.682-11.079-8.796c-4.153-0.195-7.981,2.683-10.774,7.864c-4.802,8.901-7.275,23.74-7.764,28.235
						l-4.475,41.252l-29.48-29.197c-3.43-3.398-8.513-4.741-12.632-3.345c-7.131,2.415-9.482,12.073-10.249,17.615
						c-3.615,26.145,6.895,74.009,11.25,90.244l1.106,4.126l-0.674,4.224c-1.719,10.737-24.736,88.511-75.479,117.373
						c-26.953,15.332-61.133,19.331-101.587,11.904l7.227-39.346c30.508,5.615,56.296,3.072,74.583-7.329
						c29.167-16.587,50.332-67.573,54.966-85.317c-4.136-16.467-15.735-67.224-11.015-101.358
						c3.457-24.993,16.96-43.225,37.048-50.024c8.191-2.773,16.914-3.31,25.305-1.831c1.714-5.457,3.899-11.089,6.665-16.218
						c10.024-18.581,27.505-29.314,47.034-28.86c14.885,0.393,28.726,7.568,38.445,19.419c13.992-13.987,35.212-18.826,54.36-11.653
						c13.962,5.227,23.955,15.684,28.364,28.738c11.277-1.773,23.127,0.959,33.123,8.25c12.725,9.282,19.344,23.806,18.481,38.804
						c11.233,2.258,20.996,8.85,27.454,19.067c11.089,17.539,9.768,41.008-3.208,57.068c-10.029,12.41-24.126,24.624-32.688,31.594
						c-1.753,19.011-9.195,60.906-40.51,100.168c-31.914,156.377-67.908,240.942-123.818,291.274
						C2771.517,2405.627,2713.541,2423.996,2624.742,2423.996z"/>
				</g>
			</g>
			<g>
				<g>
					<path style="fill:#410700;" d="M2793.374,1844.619c10.958,18.358,14.036,36.776,14.068,57.224c0,0-11.123-14.785-11.123-14.785
						c12.147,6.899,20.151,15.363,28.399,25.564c7.013,9.253,13.849,20.127,14.729,31.804c-5.822-9.365-15.328-14.871-24.893-19.448
						c-9.326-4.107-20.592-8.148-30.288-7.327c0,0-8.811-14.9-8.811-14.9c-2.022-11.931-6.749-26.317-14.615-34.861
						C2760.84,1867.891,2793.374,1844.619,2793.374,1844.619L2793.374,1844.619z"/>
				</g>
			</g>
		</g>
		<g>
			<g>
				<g>
					<path style="fill:#FFF3D2;" d="M1834.647,2104.202c-83.923,14.862-126.351,39.528-160.349,60.309
						c-84.936,51.915-163.915,154.723-163.915,154.723s148.851,104.681,184.34,227.234l14.298-7.532l-12.085,194.936
						c0,0,629.447-19.064,852.085,5.447c0,0-15.83-167.83-64-338.383l69.106,7.149c0,0,45.447-108.766,24.255-315.149
						c-76.341-14.809-174.383-43.574-211.351-46.817L1834.647,2104.202z"/>
				</g>
			</g>
			<g>
				<g>
					<path style="fill:#EFD186;" d="M1694.723,2546.468l14.298-7.532l-12.085,194.936c0,0,629.447-19.064,852.085,5.447
						c0,0-0.506-5.351-1.604-15.069c-203.844-33.842-695.946-72.08-695.946-72.08l6.06-317.586l-179.712,169.415
						C1684.73,2517.816,1690.537,2532.01,1694.723,2546.468z"/>
				</g>
			</g>
			<g>
				<g>
					<path style="fill:#EFD186;" d="M1834.647,2104.201c-67.658,11.982-108.339,30.335-139.384,47.888
						c289.903,136.831,592.455,96.287,741.897-91.937c-29.793-7.139-55.045-12.711-70.128-14.034L1834.647,2104.201z"/>
				</g>
			</g>
			<g>
				<g>
					<path style="fill:#FFD833;" d="M2367.032,2046.119l-21.55,2.351c41.551,104.956,139.538,352.466,139.538,352.466l69.106,7.148
						c0,0,45.447-108.766,24.255-315.148C2502.042,2078.128,2404,2049.362,2367.032,2046.119z"/>
				</g>
			</g>
			<g>
				<g>
					<path style="fill:#F2A803;" d="M2434.189,2272.538c28.157,71.123,50.832,128.398,50.832,128.398l69.106,7.148
						c0,0,15.321-36.771,24.021-107.985L2434.189,2272.538z"/>
				</g>
			</g>
			<g>
				<g>
					<path style="fill:#F2A803;" d="M2367.032,2046.119l-21.55,2.351c8.09,20.435,18.324,46.287,29.554,74.651
						c22.839-18.698,43.651-39.702,62.123-62.968C2407.367,2053.015,2382.115,2047.442,2367.032,2046.119z"/>
				</g>
			</g>
			<g style="opacity:0.6;">
				<g>
					<path style="fill:#FFFFFF;" d="M2578.383,2092.936c-76.341-14.809-174.383-43.575-211.351-46.817l-21.55,2.351
						c2.787,7.04,5.835,14.738,9.083,22.943c60.77,22.516,151.006,54.956,228.165,78.205
						C2581.826,2131.623,2580.416,2112.739,2578.383,2092.936z"/>
				</g>
			</g>
			<g>
				<g>
					<path style="fill:#FFD833;" d="M1760.736,2122.7c-38.506,13.059-64.269,28.26-86.438,41.811
						c-84.936,51.915-163.915,154.724-163.915,154.724s148.851,104.681,184.34,227.234l14.298-7.532l134.809-122.17
						C1884.17,2276.34,1829.12,2130.638,1760.736,2122.7z"/>
				</g>
			</g>
			<g>
				<g>
					<path style="fill:#FFD833;" d="M1760.736,2122.7c-38.506,13.059-64.269,28.26-86.438,41.811
						c-84.936,51.915-163.915,154.724-163.915,154.724s148.851,104.681,184.34,227.234l14.298-7.532l134.809-122.17
						C1884.17,2276.34,1829.12,2130.638,1760.736,2122.7z"/>
				</g>
			</g>
			<g>
				<g>
					<path style="fill:#F2A803;" d="M1857.123,2334.82l-208.714,120.924c20.042,28.005,37.052,58.742,46.314,90.724l14.298-7.532
						l134.809-122.17C1851.723,2389.291,1855.919,2361.628,1857.123,2334.82z"/>
				</g>
			</g>
			<g>
				<g>
					<path style="fill:#F2A803;" d="M1760.736,2122.7c-27.063,9.179-47.818,19.414-65.469,29.392
						c47.427,22.385,95.188,40.048,142.568,53.067C1819.96,2158.262,1791.737,2126.299,1760.736,2122.7z"/>
				</g>
			</g>
			<g style="opacity:0.6;">
				<g>
					<path style="fill:#FFFFFF;" d="M1834.647,2104.201c-83.923,14.862-126.351,39.529-160.349,60.309
						c-84.936,51.915-163.915,154.724-163.915,154.724s15.563,10.965,37.776,29.873c46.844-52.982,125.848-138.545,169.616-164.76
						c28.324-16.965,153.248-71.993,190.132-88.139L1834.647,2104.201z"/>
				</g>
			</g>
			<g>
				<g>
					<path style="fill:#410700;" d="M2549.022,2759.318c-0.728,0-1.458-0.039-2.19-0.122
						c-218.713-24.072-843.008-5.527-849.289-5.332c-5.701,0.093-11.057-2.036-14.968-6.074c-3.916-4.038-5.947-9.541-5.598-15.152
						l10.388-167.573c-0.156-0.063-0.313-0.127-0.469-0.195c-5.532-2.354-9.712-7.065-11.384-12.842
						c-33.081-114.238-175.208-215.43-176.638-216.44c-4.453-3.135-7.439-7.954-8.257-13.34c-0.82-5.386,0.588-10.879,3.909-15.195
						c3.316-4.321,82.239-106.367,169.341-159.609c30.566-18.677,76.753-46.899,167.292-62.935l6.978,39.385
						c-83.105,14.722-123.74,39.551-153.408,57.681c-61.299,37.471-120.488,103.921-145.732,134.126
						c38.469,30.063,130.554,109.17,167.498,203.398c4.612-0.581,9.36,0.439,13.389,3.042c6.069,3.926,9.551,10.82,9.101,18.032
						l-10.73,173.081c110.33-3.047,592.693-14.922,808.172,3.765c-6.26-52.241-24.136-181.362-60.652-310.649
						c-1.802-6.377-0.325-13.237,3.943-18.311c4.265-5.068,10.769-7.725,17.364-7.017l53.281,5.508
						c10.266-33.647,32.798-128.14,19.531-276.938c-31.026-6.46-64.722-14.717-94.942-22.115
						c-41.579-10.185-80.852-19.804-99.666-21.455l3.496-39.844c21.86,1.914,60.706,11.431,105.684,22.446
						c34.622,8.477,73.86,18.086,107.727,24.658c8.652,1.68,15.185,8.823,16.086,17.593
						c21.465,209.038-23.76,320.264-25.696,324.897c-3.401,8.145-11.719,13.111-20.513,12.183l-40.081-4.146
						c42.161,160.352,56.795,312.007,56.946,313.608c0.564,5.991-1.594,11.914-5.881,16.133
						C2559.293,2757.272,2554.244,2759.318,2549.022,2759.318z"/>
				</g>
			</g>
			<g>
				<g>
					<polygon style="fill:#410700;" points="1695.591,2524.116 1843.831,2416.765 1722.451,2553.755 1695.591,2524.116 					"/>
				</g>
			</g>
			<g>
				<g>
					<polygon style="fill:#410700;" points="2418.298,2232.937 2503.608,2393.555 2466.433,2408.318 2418.298,2232.937 					"/>
				</g>
			</g>
			<g>
				<g>
					<path style="fill:#410700;" d="M1695.593,2144.526c32.01,31.561,59.605,66.824,80.833,106.281
						c-28.733-31.728-63.302-58.935-99.934-80.61C1676.492,2170.198,1695.593,2144.526,1695.593,2144.526L1695.593,2144.526z"/>
				</g>
			</g>
		</g>
		<g>
			<g>
				<g>
					<path style="fill:#E8A289;" d="M1922.373,2113.803c54.393,107.388,276.926,121.443,302.511-22.095L1922.373,2113.803z"/>
				</g>
			</g>
			<g>
				<g>
					<path style="fill:#410700;" d="M2080.587,2216.945c-75.137,0-147.278-37.29-176.055-94.102l35.684-18.076
						c25.063,49.492,98.398,80.332,166.948,70.249c25.491-3.755,86.072-19.727,98.03-86.821l39.38,7.021
						c-11.46,64.302-60.649,108.926-131.58,119.375C2102.213,2216.178,2091.363,2216.945,2080.587,2216.945z"/>
				</g>
			</g>
		</g>
		<g>
			<g>
				<g>
					<g>
						<path style="fill:#FDD0B4;" d="M2667.83,1524.681c56.255-27.575,143.354,11.648,140.936,125.617
							c-2.383,112.34-65.929,209.362-169.546,178.079C2565.078,1697.052,2525.843,1578.282,2667.83,1524.681z"/>
					</g>
				</g>
				<g>
					<g>
						<path style="fill:#E8A289;" d="M2808.766,1650.298c0.334-15.737-1.091-29.997-3.854-42.904
							c-5.35,109.4-82.527,146.053-130.939,56.622c-13.211-24.405-56.866-12.779-99.324,6.478
							c7.414,47.554,32.774,101.561,64.572,157.884C2742.837,1859.66,2806.383,1762.639,2808.766,1650.298z"/>
					</g>
				</g>
				<g>
					<g>
						<path style="fill:#410700;" d="M2677.396,1854.318c-14.209,0-28.918-2.256-43.958-6.797l11.563-38.291
							c31.538,9.524,59.443,5.686,82.961-11.392c36.128-26.243,59.429-82.939,60.808-147.966
							c1.343-63.318-26.965-90.972-43.96-101.819c-21.223-13.545-47.351-15.625-68.176-5.413l-17.607-35.918
							c33.274-16.309,74.392-13.396,107.305,7.615c40.96,26.145,63.714,75.854,62.429,136.384
							c-1.663,78.44-30.559,145.535-77.292,179.48C2729.417,1846.217,2704.31,1854.318,2677.396,1854.318z"/>
					</g>
				</g>
			</g>
			<g>
				<g>
					<g>
						<path style="fill:#FDD0B4;" d="M1397.719,1610.505c-67.591-17.398-154.872,33.147-127.846,164.9
							c24.511,119.489,127.155,173.619,191.492,137.107L1397.719,1610.505z"/>
					</g>
				</g>
				<g>
					<g>
						<path style="fill:#E8A289;" d="M1424.822,1739.114c-13.64-13.316-22.75-17.264-24.207-6.294
							c-10.741,80.873-85.199,122.273-135.74-1.772c0.154,13.614,1.72,28.376,4.998,44.356
							c24.511,119.489,127.155,173.619,191.492,137.107L1424.822,1739.114z"/>
					</g>
				</g>
				<g>
					<g>
						<path style="fill:#410700;" d="M1417.401,1943.732c-18.372,0-37.473-4.224-56.104-12.681
							c-55.178-25.051-96.68-81.733-111.018-151.628c-18.569-90.52,14.639-138.274,36.087-158.684
							c30.383-28.911,74.958-40.266,116.338-29.602l-9.971,38.735c-28.125-7.231-58.32,0.366-78.792,19.844
							c-26.672,25.381-35.366,68.591-24.477,121.67c11.775,57.395,44.81,103.467,88.369,123.242
							c26.311,11.946,53.159,12.124,73.662,0.488l19.741,34.79C1455.003,1939.118,1436.6,1943.73,1417.401,1943.732z"/>
					</g>
				</g>
			</g>
			<g>
				<g>
					<path style="fill:#FDD0B4;" d="M1392.936,1650.298c9.737,56.907,0,167.49,64.851,257.362
						c95.145,131.855,310.257,224.136,611.234,206.298c269.958-16,473.362-140.936,551.83-254.979
						c83.554-121.435,44.085-233.702,45.617-288.681c66.366-576.157-55.149-948.425-504.986-1001.532
						C1420.511,501.456,1172.363,977.932,1392.936,1650.298z"/>
				</g>
			</g>
			<g>
				<g>
					<path style="fill:#E8A289;" d="M2668.876,1607.19C2668.876,1607.19,2668.876,1607.19,2668.876,1607.19
						c-11.574,200.995-226.678,394.831-604.961,411.788c-404.981,18.155-620.247-160.154-663.3-286.158
						c5.215,54.236,16.585,118.593,57.172,174.839c95.145,131.855,310.257,224.136,611.234,206.298
						c269.958-16,473.362-140.936,551.83-254.979C2688.651,1760.441,2675.447,1667.945,2668.876,1607.19z"/>
				</g>
			</g>
			<g>
				<g>
					<path style="fill:#E8A289;" d="M1941.127,1673.879c55.923-26.042,122.788-24.51,165.682-10.605
						C2050.754,1501.794,1976.357,1538.178,1941.127,1673.879z"/>
				</g>
			</g>
			<g>
				<g>
					<path style="fill:#E8A289;" d="M2161.482,568.766c-739.696-67.194-988.229,407.541-769.647,1078.075
						c2.697-4.04,5.125-8.965,7.229-14.926c42.894-121.532,28.255-320.34,28.255-320.34c65.65-129.45,87.149-308.766,87.149-308.766
						l137.872,59.234c0,0-53.106-139.915,8.17-219.575c33.362,182.808,156.255,205.277,156.255,205.277
						s31.66-172.596,303.396-241.349c18.383,61.276-100.445,167.438-100.445,167.438c203.517,28.975,362.836-35.366,430.049-102.77
						c39.691,184.028,85.618,248.534,138.405,362.523l51.05,216.2l39.452-273.297C2651.04,827.243,2498.303,608.53,2161.482,568.766
						z"/>
				</g>
			</g>
			<g>
				<g>
					<path style="fill:#410700;" d="M1996.387,2136.135c-251.057,0-455.288-78.843-554.819-216.77
						c-52.886-73.293-59.143-157.751-63.708-219.419c-1.345-18.145-2.505-33.814-4.639-46.274l39.429-6.748
						c2.454,14.346,3.679,30.901,5.1,50.068c4.214,56.907,9.988,134.846,56.255,198.965
						c101.064,140.056,323.098,214.129,593.833,198.035c262.9-15.581,462.415-138.623,536.536-246.35
						c61.074-88.762,52-171.201,45.374-231.396c-1.956-17.766-3.645-33.11-3.271-46.504l39.985,1.113
						c-0.298,10.64,1.252,24.717,3.047,41.013c6.899,62.69,17.329,157.427-52.18,258.45
						c-82.117,119.346-289.321,247.141-567.122,263.606C2045.216,2135.402,2020.56,2136.135,1996.387,2136.135z"/>
				</g>
			</g>
			<g>
				<g>
					<g>
						<path style="fill:#FFFFFF;" d="M1563.489,1667.149c-63.83-147.574,10.49-267.028,108.255-287.174
							c130.383-26.868,222.128,99.26,200.17,249.557c0,0,3.251,148.936-129.702,164.255
							C1609.995,1809.022,1563.489,1667.149,1563.489,1667.149z"/>
					</g>
				</g>
				<g>
					<g>
						<path style="fill:#410700;" d="M1563.489,1667.148c-32.894-53.652-45.987-121.446-26.657-183.33
							c24.699-84.069,108.704-140.183,196.409-125.096c122.157,20.585,171.9,163.12,138.672,270.81
							c0.447-59.083-11.64-119.808-45.521-167.681c-31.385-45.756-83.991-72.636-139.104-64.237
							c-54.676,6.255-100.228,46.755-120.746,96.911C1543.533,1548.221,1547.886,1611.205,1563.489,1667.148L1563.489,1667.148z"/>
					</g>
				</g>
				<g>
					<g>
						<path style="fill:#410700;" d="M1662.623,1769.034c-41.622-50.973-54.009-186.956-30.988-249.868
							c28.876-78.911,139.514-77.549,168.935-15.804c28.701,60.234,37.585,193.575,18.238,243.276
							C1799.064,1797.362,1696.596,1810.638,1662.623,1769.034z"/>
					</g>
				</g>
				<g>
					<g>
						
							<ellipse transform="matrix(0.9941 -0.1083 0.1083 0.9941 -168.6524 200.7411)" style="fill:#FFFFFF;" cx="1763.538" cy="1652.851" rx="33.484" ry="39.319"/>
					</g>
				</g>
				<g style="opacity:0.4;">
					<g>
						
							<ellipse transform="matrix(0.9941 -0.1083 0.1083 0.9941 -164.9918 193.0064)" style="fill:#FFFFFF;" cx="1694.021" cy="1615.161" rx="22.333" ry="26.225"/>
					</g>
				</g>
			</g>
			<g>
				<g>
					<g>
						<path style="fill:#FFFFFF;" d="M2496.315,1622.463c57.521-150.146-21.792-266.344-120.323-282.331
							c-131.404-21.321-217.723,108.58-189.419,257.813c0,0,3.061,148.94,136.544,158.614
							C2455.861,1766.179,2496.315,1622.463,2496.315,1622.463z"/>
					</g>
				</g>
				<g>
					<g>
						<path style="fill:#410700;" d="M2496.316,1622.463c13.218-56.542,14.906-119.676-10.362-172.341
							c-22.623-49.24-69.854-87.778-124.746-91.708c-55.417-6.053-106.837,23.029-136.257,70.073
							c-31.819,49.275-41.32,110.43-38.379,169.457c-37.751-106.181,5.901-250.702,127.081-276.443
							c86.984-18.781,173.303,33.724,201.529,116.668C2537.118,1499.175,2526.907,1567.472,2496.316,1622.463L2496.316,1622.463z"/>
					</g>
				</g>
				<g>
					<g>
						<path style="fill:#410700;" d="M2401.586,1728.456c39.426-52.69,46.041-189.076,20.376-250.956
							c-32.192-77.617-142.674-71.57-169.453-8.634c-26.124,61.396-29.352,194.994-7.917,243.831
							C2266.468,1762.538,2369.406,1771.463,2401.586,1728.456z"/>
					</g>
				</g>
				<g>
					<g>
						
							<ellipse transform="matrix(0.0661 -0.9978 0.9978 0.0661 530.9478 3800.5947)" style="fill:#FFFFFF;" cx="2295.84" cy="1616.653" rx="39.319" ry="33.484"/>
					</g>
				</g>
				<g style="opacity:0.4;">
					<g>
						
							<ellipse transform="matrix(0.0661 -0.9978 0.9978 0.0661 634.8451 3830.3975)" style="fill:#FFFFFF;" cx="2363.698" cy="1576.052" rx="26.225" ry="22.333"/>
					</g>
				</g>
			</g>
			<g>
				<g>
					<path style="fill:#410700;" d="M1586.299,1320.767c2.623-53.834,48.129-101.891,102.174-110.241
						c46.921-9.885,108.696,16.687,112.976,69.05c-19.864-15.321-38.116-22.901-57.049-27.274
						C1678.705,1237.282,1624.976,1267.997,1586.299,1320.767L1586.299,1320.767z"/>
				</g>
			</g>
			<g>
				<g>
					<path style="fill:#410700;" d="M2449.766,1275.537c-42.18-50.077-97.817-77.061-162.354-57.667
						c-18.593,5.638-36.293,14.43-55.08,31.051c0.762-52.543,60.577-83.189,108.071-76.498
						C2394.877,1177.114,2443.537,1222.008,2449.766,1275.537L2449.766,1275.537z"/>
				</g>
			</g>
			<g>
				<g>
					<path style="fill:#03006B;" d="M1918.213,1767.234c61.957,34.553,178.383,34.553,242.724-13.788
						c5.106,40.289,1.451,155.555-104.17,166.979C1960.766,1930.808,1921.617,1833.787,1918.213,1767.234z"/>
				</g>
			</g>
			<g>
				<g>
					<path style="fill:#410700;" d="M1918.213,1767.234c61.957,34.553,178.383,34.553,242.724-13.788
						c5.106,40.289,1.451,155.555-104.17,166.979C1960.766,1930.808,1921.617,1833.787,1918.213,1767.234z"/>
				</g>
			</g>
			<g>
				<g>
					<path style="fill:#FFFFFF;" d="M2042.857,1826.468c65.654-2.894,103.781-22.723,101.655-62.33
						c-0.001-0.013-0.003-0.027-0.004-0.04c-58.115,32.845-144.547,34.921-203.381,13.462c0,0.007-0.001,0.015-0.001,0.022
						C1941.127,1818.381,1985.062,1829.015,2042.857,1826.468z"/>
				</g>
			</g>
			<g>
				<g>
					<path style="fill:#FFABB9;" d="M2140.575,1868.183c-26.613-10.357-58.358-15.134-92.02-12.252
						c-33.219,2.844-63.323,12.725-87.623,27.14c22.044,25.506,53.367,41.947,95.833,37.355
						C2099.078,1915.849,2124.999,1894.594,2140.575,1868.183z"/>
				</g>
			</g>
			<g>
				<g>
					<path style="fill:#410700;" d="M2042.591,1937.209c-29.934,0-56.431-9.678-78.943-28.87
						c-41.814-35.649-59.141-95.845-61.414-140.288l-1.477-28.872l25.249,14.08c55.356,30.874,165.83,32.092,225.318-12.605
						l22.021-16.543l3.464,27.324c1.101,8.684,9.544,86.384-32.407,139.5c-20.688,26.196-49.597,41.472-85.916,45.4
						C2053.087,1936.918,2047.786,1937.209,2042.591,1937.209z M1937.498,1793.273c6.106,31.98,20.605,68.286,46.912,90.715
						c19.458,16.587,43.237,23.491,70.635,20.53c27.463-2.969,49.077-14.214,64.245-33.418
						c20.239-25.625,26.472-61.775,27.009-89.668C2083.575,1814.086,1997.506,1814.486,1937.498,1793.273z"/>
				</g>
			</g>
			<g>
				<g>
					<path style="fill:#895649;" d="M1392.936,1650.298c0,0-127.572-176.619-169.191-401.362
						c-39.149-211.404-19.557-396.64,173.276-591.319c213.447-215.489,624-392.17,1139.745-51.064
						c199.149,99.064,238.979,304.341,189.617,582.468c-6.983,39.347-13.617,282.553-59.915,381.277
						c-17.702-76.936-43.915-386.723-43.915-386.723c-107.234-121.532-154.894-444.596-154.894-444.596
						c-142.298,204.255-421.106,163.234-421.106,163.234c48.51-60.255,60.766-154.213,60.766-154.213s-75.064,16.34-202.723,75.575
						c-127.66,59.234-152.17,147.064-152.17,147.064c-125.106-52.596-101.106-172.085-101.106-172.085
						c-108.766,102.128-75.574,166.979-75.574,166.979c-79.404-5.617-111.83-62.553-111.83-62.553s-2.553,79.745-16.851,153.957
						c-10.497,54.486-62.298,259.404-62.298,259.404C1397.021,1421.532,1404.851,1605.021,1392.936,1650.298z"/>
				</g>
			</g>
			<g>
				<g style="opacity:0.6;">
					<g>
						<path style="fill:#FFFFFF;" d="M2724.019,1209.16c0,0.003-0.001,0.005-0.001,0.008c-0.8,6.808-1.326,13.191-1.632,19.233
							C2722.959,1221.258,2723.5,1214.795,2724.019,1209.16z"/>
					</g>
				</g>
				<g style="opacity:0.6;">
					<g>
						<path style="fill:#FFFFFF;" d="M2726.383,1189.021c49.362-278.128,9.532-483.404-189.617-582.468
							c-515.745-341.106-926.298-164.425-1139.745,51.064c-192.833,194.679-212.426,379.915-173.277,591.319
							c6.563,35.441,15.267,69.683,25.268,102.227c-1.092-3.775-2.255-7.684-3.563-11.865
							c-106.131-616.659,381.427-849.982,706.806-868.574c333.617-19.064,554.213,175.66,554.213,175.66
							c122.558,41.522,253.432,213.043,219.385,546.041C2726.03,1191.174,2726.207,1190.015,2726.383,1189.021z"/>
					</g>
				</g>
			</g>
			<g>
				<g>
					<path style="fill:#A86C54;" d="M2657.617,1149.702c-66.042-100.255-122.553-276.596-174.979-490.383
						c-85.276,85.107-166.79,161.134-331.574,168.851c19.745-34.043,29.277-136.851,24.511-168.851
						c-220.596,40.851-324.085,97.361-441.872,193.362c-38.128-40.851-23.718-120.782-18.383-160.001
						c-56.51,13.617-170.308,91.014-187.915,174.979c-30.425-12.603-66.828-42.885-107.218-84.953
						c-2.399,99.932-23.506,302.825-91.09,509.04c0,0,24.158,132.326,34.079,312.543c17.79,29.427,29.761,46.008,29.761,46.008
						c11.915-45.276,4.085-228.766-8.17-333.957c0,0,51.801-204.918,62.298-259.404c14.298-74.213,16.851-153.958,16.851-153.958
						s32.426,56.937,111.83,62.554c0,0-33.191-64.852,75.574-166.979c0,0-24,119.49,101.106,172.086
						c0,0,24.511-87.83,152.17-147.064C2032.255,764.341,2107.319,748,2107.319,748s-12.255,93.957-60.766,154.213
						c0,0,278.809,41.021,421.106-163.234c0,0,47.659,323.065,154.894,444.596c0,0,26.213,309.787,43.915,386.723
						c5.05-10.769,9.628-23.259,13.786-37.014L2657.617,1149.702z"/>
				</g>
			</g>
			<g>
				<g>
					<path style="fill:#410700;" d="M1401.505,1696.318l-24.783-34.309c-5.315-7.361-130.686-182.871-172.644-409.429
						c-22.493-121.47-22.525-220.1-0.098-310.396c26.34-106.062,84.839-203.747,178.833-298.643
						c128.008-129.233,294.145-214.456,467.813-239.968c225.281-33.076,459.482,29.351,696.155,185.625
						c99.829,49.998,166.165,129.338,197.188,235.847c28.149,96.646,28.84,216.848,2.107,367.471
						c-1.516,8.54-3.193,30.085-5.317,57.366c-7.3,93.777-19.521,250.735-56.182,328.906l-24.604,52.466l-12.993-56.472
						c-16.602-72.146-39.842-336.995-43.804-383.081c-83.875-100.43-130.588-312.388-147.725-405.159
						c-60.779,67.693-145.693,112.441-248.264,130.352c-89.624,15.652-160.566,5.549-163.542,5.107l-34.597-5.09l21.929-27.239
						c28.02-34.807,43.159-82.956,50.53-113.862c-32.688,9.905-90.83,29.871-168.491,65.906
						c-116.648,54.126-140.405,131.172-141.36,134.424l-6.301,21.487l-20.679-8.55c-82.112-34.521-106.672-95.935-112.998-140.532
						c-55.073,67.551-38.12,107.847-37.913,108.311l18.782,32.59l-38.21-3.962c-42.114-2.981-72.634-18.777-93.269-34.885
						c-2.417,30.044-6.755,70.632-14.363,110.122c-9.849,51.116-54.5,228.625-61.648,256.968
						c11.699,102.991,20.452,287.439,7.222,337.7L1401.505,1696.318z M1969.19,434.853c-291.162,0-486.565,164.761-557.959,236.838
						c-202.908,204.851-200.571,396.748-167.822,573.603c27.734,149.756,95.303,278.982,135.083,345.476
						c1.841-72.141-4.165-191.216-13.591-272.117l-0.425-3.652l0.901-3.564c0.515-2.044,51.777-204.981,62.048-258.286
						c13.814-71.709,16.475-150.034,16.499-150.815l2.285-70.854l35.083,61.599c0.93,1.577,21.565,35.73,69.915,48.303
						c-0.605-33.015,13.059-88.525,86.423-157.41l45.62-42.837l-12.322,61.355c-0.752,3.911-16.594,92.664,71.152,140.986
						c15.989-32.151,57.334-93.147,154.097-138.047c128.188-59.48,203.735-76.287,206.89-76.975l27.759-6.042l-3.674,28.174
						c-0.452,3.467-10.022,74.045-44.79,134.377c75.674,2.991,263.574-6.252,368.886-157.419l28.828-41.377l7.368,49.89
						c0.469,3.171,48.047,318.618,150.105,434.282l4.373,4.959l0.559,6.587c0.198,2.354,15.408,181.211,30.237,299.002
						c15.923-76.9,23.472-173.87,28.162-234.111c2.295-29.48,3.953-50.779,5.811-61.25
						c52.529-295.964-4.297-474.246-178.833-561.067l-2.124-1.226C2314.876,483.776,2127.811,434.853,1969.19,434.853z"/>
				</g>
			</g>
		</g>
	</g>
</g>
</svg>
